<svg width="40" height="40" viewBox="0 0 40 40" fill="none" xmlns="http://www.w3.org/2000/svg">
<rect width="40" height="40" rx="10" fill="#0F0C07"/>
<path fill-rule="evenodd" clip-rule="evenodd" d="M15.7287 18.3235C15.6018 18.1574 15.3974 18.0697 15.1897 18.0922C14.9819 18.1148 14.8011 18.2444 14.7128 18.434L9.56495 28.7338C9.4696 28.9246 9.47979 29.1513 9.59188 29.3328C9.70398 29.5143 9.902 29.6248 10.1152 29.6248H17.2834C17.5179 29.6303 17.7336 29.4968 17.8336 29.2844C19.3799 26.087 18.4428 21.2253 15.7287 18.3235Z" fill="url(#paint0_linear_246_187)"/>
<path fill-rule="evenodd" clip-rule="evenodd" d="M19.5044 8.95542C16.8949 12.9735 16.5937 18.0701 18.7118 22.3679L22.1676 29.2845C22.2718 29.493 22.4849 29.6248 22.7179 29.6248H29.8847C30.098 29.6248 30.296 29.5143 30.4081 29.3328C30.5202 29.1513 30.5304 28.9246 30.435 28.7338C30.435 28.7338 20.7932 9.43427 20.5509 8.95155C20.4531 8.75105 20.2494 8.62418 20.0264 8.625C19.8035 8.62583 19.6007 8.7542 19.5044 8.95542Z" fill="#2684FF"/>
<defs>
<linearGradient id="paint0_linear_246_187" x1="18.55" y1="19.9131" x2="11.3294" y2="27.664" gradientUnits="userSpaceOnUse">
<stop stop-color="#0052CC"/>
<stop offset="0.923" stop-color="#2684FF"/>
</linearGradient>
</defs>
</svg>
