<svg width="21" height="20" viewBox="0 0 21 20" fill="none" xmlns="http://www.w3.org/2000/svg">
<path d="M18.54 4.82L12.78 0.789999C11.21 -0.310001 8.79999 -0.250001 7.28999 0.919999L2.27999 4.83C1.27999 5.61 0.48999 7.21 0.48999 8.47V15.37C0.48999 17.92 2.55999 20 5.10999 20H15.89C18.44 20 20.51 17.93 20.51 15.38V8.6C20.51 7.25 19.64 5.59 18.54 4.82ZM11.25 16C11.25 16.41 10.91 16.75 10.5 16.75C10.09 16.75 9.74999 16.41 9.74999 16V13C9.74999 12.59 10.09 12.25 10.5 12.25C10.91 12.25 11.25 12.59 11.25 13V16Z" fill="#5786FF"/>
</svg>
