<svg width="13" height="15" viewBox="0 0 13 15" fill="none" xmlns="http://www.w3.org/2000/svg">
<path d="M6.5968 8.33333C7.70137 8.33333 8.5968 7.4379 8.5968 6.33333C8.5968 5.22876 7.70137 4.33333 6.5968 4.33333C5.49223 4.33333 4.5968 5.22876 4.5968 6.33333C4.5968 7.4379 5.49223 8.33333 6.5968 8.33333Z" stroke="#40577D" stroke-width="1.5" stroke-linecap="round" stroke-linejoin="round"/>
<path d="M10.3682 10.1047L7.53949 12.9333C7.28948 13.1831 6.95055 13.3234 6.59716 13.3234C6.24377 13.3234 5.90483 13.1831 5.65482 12.9333L2.82549 10.1047C2.07964 9.35877 1.57172 8.40846 1.36595 7.3739C1.16018 6.33935 1.26582 5.26701 1.66949 4.29248C2.07317 3.31796 2.75676 2.48502 3.63381 1.899C4.51087 1.31298 5.542 1.00019 6.59682 1.00019C7.65165 1.00019 8.68278 1.31298 9.55984 1.899C10.4369 2.48502 11.1205 3.31796 11.5242 4.29248C11.9278 5.26701 12.0335 6.33935 11.8277 7.3739C11.6219 8.40846 11.114 9.35877 10.3682 10.1047V10.1047Z" stroke="#40577D" stroke-width="1.5" stroke-linecap="round" stroke-linejoin="round"/>
</svg>
