<svg width="41" height="40" viewBox="0 0 41 40" fill="none" xmlns="http://www.w3.org/2000/svg">
<rect x="0.596802" width="40" height="40" rx="10" fill="#0F0C07"/>
<path fill-rule="evenodd" clip-rule="evenodd" d="M18.1369 16.1844C18.1239 16.1844 18.0988 16.1844 18.0858 16.1844C17.8703 16.1581 17.6929 15.9607 17.6929 15.7369C17.6799 15.5262 17.5656 10.6031 20.3428 9.48429C21.0404 9.20783 21.6877 9.26045 22.233 9.66859C22.9045 10.1556 23.3866 11.1297 23.6782 12.5513C23.8808 13.5518 23.9188 14.4205 23.9188 14.46C23.9318 14.6706 23.7674 14.8286 23.551 14.7891C23.3355 14.7628 23.1581 14.5654 23.1581 14.3547C23.1201 13.4596 22.8284 10.9981 21.8652 10.2872C21.5605 10.0635 21.1797 10.0371 20.7236 10.2214C18.3393 11.1823 18.4536 15.8027 18.4536 15.8553C18.4536 16.0396 18.3273 16.1844 18.1369 16.1844Z" fill="#595961"/>
<path opacity="0.46" fill-rule="evenodd" clip-rule="evenodd" d="M22.0927 9.69487C21.5856 9.32626 20.9901 9.27364 20.3428 9.52374C19.2143 9.98442 18.4155 11.1955 18.0226 13.0384C17.7309 14.3942 17.769 15.6184 17.769 15.671C17.769 15.7368 17.7941 15.8027 17.8451 15.8553C17.8953 15.908 17.9464 15.9475 18.0096 15.9475C18.0226 15.9475 18.0355 15.9475 18.0477 15.9475C18.1619 15.9475 18.251 15.8553 18.251 15.7368C18.251 15.6842 18.1368 10.9848 20.5843 9.9976C21.0785 9.8002 21.5094 9.82647 21.8651 10.0897C22.8915 10.8401 23.1961 13.3806 23.2342 14.2889C23.2342 14.4205 23.3485 14.5522 23.4878 14.5653C23.615 14.5785 23.7163 14.4863 23.7163 14.3547C23.7033 14.1968 23.564 10.7743 22.0927 9.69487Z" fill="#B2B2C2"/>
<path opacity="0.46" fill-rule="evenodd" clip-rule="evenodd" d="M18.0226 15.7895C18.0096 15.7895 18.0096 15.7895 17.9975 15.7895C17.9213 15.7763 17.8573 15.6974 17.8451 15.6184C17.8451 15.5657 17.8071 14.3679 18.0987 13.012C18.4787 11.2087 19.2783 10.0107 20.3809 9.56316C21.0023 9.31306 21.5605 9.36577 22.0426 9.70802C23.4627 10.7479 23.6021 14.1178 23.6021 14.2625C23.6021 14.3415 23.5389 14.3941 23.4627 14.381C23.3866 14.3679 23.3234 14.3021 23.3104 14.2099C23.3104 14.1704 23.1711 10.8664 21.8902 9.9186C21.5094 9.64222 21.0404 9.60269 20.5081 9.81327C18.0226 10.8532 18.1368 15.6184 18.1368 15.671C18.1489 15.7368 18.0987 15.7895 18.0226 15.7895Z" fill="#B2B2C2"/>
<path opacity="0.62" fill-rule="evenodd" clip-rule="evenodd" d="M19.0499 12.0249C19.1511 11.8275 19.2524 11.63 19.3415 11.4194C19.3034 11.4852 19.0498 12.1697 18.2761 12.0644C18.2632 12.0644 18.7323 12.2092 19.0499 12.0249Z" fill="#595961"/>
<path opacity="0.62" fill-rule="evenodd" clip-rule="evenodd" d="M18.7703 12.8672C18.8464 12.6565 18.9226 12.4328 18.9736 12.2222C18.9485 12.3012 18.8213 13.012 18.0095 13.012C18.0095 13.012 18.4786 13.1041 18.7703 12.8672Z" fill="#595961"/>
<path opacity="0.62" fill-rule="evenodd" clip-rule="evenodd" d="M23.2213 11.1693C23.1201 10.9322 23.0058 10.7085 22.8916 10.4716C22.9296 10.5505 23.3104 11.3008 22.8795 11.8405C22.8795 11.8405 23.2092 11.5773 23.2213 11.1693Z" fill="#595961"/>
<path opacity="0.62" fill-rule="evenodd" clip-rule="evenodd" d="M22.5246 9.98454C22.3213 9.81341 22.1187 9.65546 21.9153 9.51068C21.9915 9.57648 22.6639 10.0635 22.6259 10.8007C22.6129 10.8007 22.7272 10.3663 22.5246 9.98454Z" fill="#595961"/>
<path opacity="0.62" fill-rule="evenodd" clip-rule="evenodd" d="M19.4176 11.3007C19.5699 11.1427 19.6962 10.9716 19.8355 10.7873C19.7853 10.8399 19.3665 11.3797 18.6188 11.1822C18.6188 11.1822 19.0497 11.4192 19.4176 11.3007Z" fill="#595961"/>
<path opacity="0.62" fill-rule="evenodd" clip-rule="evenodd" d="M19.8866 10.6953C20.064 10.5637 20.2285 10.432 20.3938 10.2872C20.3306 10.3267 19.8105 10.7611 19.0878 10.4452C19.0878 10.4452 19.5058 10.7479 19.8866 10.6953Z" fill="#595961"/>
<path opacity="0.62" fill-rule="evenodd" clip-rule="evenodd" d="M20.5712 10.2607C20.7867 10.1949 20.9901 10.1159 21.1926 10.0369C21.1165 10.0632 20.4699 10.3001 19.8356 9.79993C19.8486 9.79993 20.1783 10.1949 20.5712 10.2607Z" fill="#595961"/>
<path opacity="0.62" fill-rule="evenodd" clip-rule="evenodd" d="M21.1927 10.024C21.3701 10.0504 21.5475 10.0635 21.7249 10.0767C21.6617 10.0635 21.1035 10.024 20.7867 9.49744C20.7867 9.49744 20.914 9.85287 21.1927 10.024Z" fill="#595961"/>
<path opacity="0.62" fill-rule="evenodd" clip-rule="evenodd" d="M21.9283 10.3133C22.0547 10.4582 22.1949 10.6029 22.3463 10.7345C22.2961 10.6819 21.8652 10.2475 21.9664 9.70786C21.9534 9.70786 21.8141 10.0106 21.9283 10.3133Z" fill="#595961"/>
<path opacity="0.74" fill-rule="evenodd" clip-rule="evenodd" d="M23.4627 14.1967C23.4627 14.0519 23.3234 10.7215 21.9413 9.70803C21.6747 9.51055 21.3831 9.4184 21.0784 9.4184C20.85 9.4184 20.6094 9.47102 20.3558 9.57635C19.2523 10.0108 18.4787 11.1823 18.0987 12.9725C17.8071 14.3152 17.8451 15.5131 17.8451 15.5657C17.8451 15.6052 17.8832 15.6447 17.9213 15.6447H17.9334C17.9715 15.6447 17.9975 15.6184 17.9975 15.5789C17.9975 15.5262 17.8702 10.7215 20.419 9.69485C20.9772 9.47102 21.4592 9.51055 21.8651 9.81328C23.1832 10.7742 23.3234 14.1309 23.3234 14.1704C23.3234 14.2099 23.3615 14.2494 23.3996 14.2494C23.3996 14.2494 23.3995 14.2494 23.4117 14.2494C23.4376 14.2625 23.4627 14.2362 23.4627 14.1967Z" fill="url(#paint0_linear_253_189)"/>
<path fill-rule="evenodd" clip-rule="evenodd" d="M23.6782 12.5514C23.3866 11.1298 22.9046 10.1688 22.233 9.66861C21.8652 9.40541 21.4714 9.2869 21.0404 9.31326C21.3831 9.33953 21.6999 9.45803 21.9915 9.66861C22.664 10.1557 23.146 11.1298 23.4377 12.5514C23.6402 13.5519 23.6782 14.4206 23.6782 14.4601C23.6782 14.6181 23.6021 14.7366 23.4749 14.776C23.5008 14.7892 23.526 14.7892 23.539 14.7892C23.7545 14.8156 23.9189 14.6707 23.9068 14.4601C23.9189 14.4206 23.8808 13.565 23.6782 12.5514Z" fill="url(#paint1_linear_253_189)"/>
<path fill-rule="evenodd" clip-rule="evenodd" d="M20.483 10.2215C18.0987 11.1824 18.2129 15.8027 18.2129 15.8554C18.2129 16.0133 18.1367 16.1318 18.0095 16.1713C18.0355 16.1844 18.0476 16.1844 18.0736 16.1844C18.0857 16.1844 18.1117 16.1844 18.1238 16.1844C18.3142 16.1844 18.4405 16.0397 18.4405 15.8554C18.4405 15.8027 18.3272 11.1955 20.7106 10.2346C20.8759 10.1688 21.0282 10.1293 21.1675 10.1161C20.9641 10.0767 20.7366 10.1161 20.483 10.2215Z" fill="url(#paint2_linear_253_189)"/>
<path fill-rule="evenodd" clip-rule="evenodd" d="M24.0963 11.3665L13.3432 14.8153C13.3432 14.8153 12.8871 14.947 12.7728 15.0917C12.6586 15.2365 12.6335 15.6446 12.6335 15.6446L10.9718 28.9396L23.4498 31.3617L24.4139 11.3533C24.2745 11.327 24.1343 11.3533 24.0963 11.3665Z" fill="url(#paint3_linear_253_189)"/>
<path fill-rule="evenodd" clip-rule="evenodd" d="M27.8125 13.0778C27.8125 13.0778 27.7995 12.9724 27.7363 12.933C27.6853 12.8935 27.6221 12.8935 27.6221 12.8935L25.8592 12.7619L24.5662 11.4324C24.5151 11.3928 24.4641 11.3666 24.4009 11.3534L23.4377 31.3618L30.1959 29.848L27.8125 13.0778Z" fill="url(#paint4_linear_253_189)"/>
<path fill-rule="evenodd" clip-rule="evenodd" d="M19.6583 22.4764C19.4679 22.2131 19.2402 21.9762 19.0118 21.7655C18.7833 21.5549 18.5427 21.3838 18.3012 21.2259C18.1368 21.1205 17.9845 21.0152 17.8573 20.9099C17.7309 20.8046 17.6297 20.6993 17.5535 20.6071C17.4773 20.5018 17.4141 20.4097 17.3761 20.3044C17.338 20.1991 17.325 20.0938 17.325 19.9884C17.325 19.8437 17.3631 19.6989 17.4141 19.5804C17.4643 19.4619 17.5535 19.3566 17.6418 19.2645C17.7439 19.1723 17.8573 19.1065 17.9975 19.0539C18.1368 19.0012 18.3012 18.9749 18.4786 18.9617C18.669 18.9486 18.8594 18.9617 19.0368 18.9749C19.2143 18.988 19.3796 19.0275 19.544 19.067C19.6963 19.1065 19.8486 19.1591 19.975 19.2118C20.1022 19.2645 20.2285 19.3171 20.3177 19.3698L21.1546 16.7898C21.0282 16.724 20.8759 16.6581 20.7106 16.6186C20.5332 16.5659 20.3428 16.5265 20.1273 16.5001C19.9118 16.4739 19.6833 16.4607 19.4427 16.4607C19.2021 16.4607 18.9486 16.4739 18.682 16.5133C18.1117 16.5923 17.6037 16.7502 17.1476 16.9872C16.7166 17.211 16.3358 17.5006 16.0191 17.856C15.7144 18.1982 15.4738 18.5931 15.2964 19.0407C15.1311 19.4751 15.0299 19.9622 15.0048 20.4886C14.9918 20.8046 15.0169 21.0942 15.093 21.3575C15.1562 21.6207 15.2583 21.8708 15.3977 22.1078C15.524 22.3447 15.6893 22.5554 15.8667 22.7528C16.0441 22.9502 16.2596 23.1345 16.4751 23.3057C16.6525 23.4373 16.8049 23.5689 16.9321 23.6874C17.0584 23.8059 17.1606 23.9243 17.2359 24.056C17.312 24.1744 17.3631 24.2929 17.4012 24.4245C17.4392 24.543 17.4522 24.6746 17.4392 24.8063C17.4392 24.9379 17.4012 25.0695 17.3501 25.1748C17.2999 25.2802 17.2359 25.3855 17.1346 25.4645C17.0463 25.5434 16.9321 25.5961 16.8049 25.6224C16.6785 25.6487 16.5262 25.6619 16.3609 25.6356C16.1714 25.6092 15.981 25.5566 15.8035 25.4775C15.6261 25.4118 15.4479 25.3196 15.2835 25.2274C15.119 25.1354 14.9667 25.03 14.8395 24.9379C14.7001 24.8457 14.5859 24.7404 14.4976 24.6614L13.9264 26.6228C14.0155 26.7544 14.1419 26.8729 14.2813 26.9914C14.4215 27.1099 14.5859 27.2283 14.7763 27.3468C14.9667 27.4521 15.1692 27.5574 15.3847 27.6495C15.6002 27.7417 15.8416 27.8206 16.0822 27.8865H16.0952H16.1073H16.1203H16.1333C16.6526 28.0049 17.1476 28.0313 17.6167 27.9655C18.0987 27.8996 18.5427 27.7285 18.9226 27.4653C19.3155 27.1888 19.6331 26.8202 19.8737 26.3332C20.1152 25.8462 20.2545 25.2538 20.2796 24.5825C20.2926 24.1612 20.2416 23.7927 20.1273 23.4504C20.0131 23.0556 19.8486 22.7528 19.6583 22.4764Z" fill="url(#paint5_linear_253_189)"/>
<path opacity="0.226763" fill-rule="evenodd" clip-rule="evenodd" d="M14.0086 26.7301C13.9792 26.6952 13.9515 26.6595 13.9264 26.6229L14.4976 24.6615C14.5054 24.6688 14.5141 24.6764 14.5227 24.6842C14.6075 24.76 14.7131 24.8544 14.8395 24.938C14.9667 25.0301 15.119 25.1355 15.2835 25.2276C15.4479 25.3197 15.6261 25.4118 15.8035 25.4777C15.981 25.5567 16.1714 25.6093 16.3609 25.6357C16.5262 25.6619 16.6785 25.6489 16.8049 25.6225C16.9321 25.5961 17.0463 25.5435 17.1346 25.4646C17.2359 25.3856 17.2999 25.2802 17.3501 25.1749C17.4012 25.0696 17.4392 24.938 17.4392 24.8064C17.4522 24.6747 17.4392 24.5431 17.4012 24.4246C17.3631 24.293 17.312 24.1745 17.2359 24.0561C17.164 23.9309 17.0688 23.8178 16.9503 23.7051C17.0126 23.7755 17.0654 23.8477 17.1095 23.9244C17.1857 24.0429 17.2359 24.1613 17.274 24.293C17.312 24.4114 17.325 24.5431 17.312 24.6747C17.312 24.8064 17.274 24.938 17.2238 25.0433C17.1727 25.1486 17.1095 25.2539 17.0083 25.3329C16.9191 25.4118 16.8049 25.4645 16.6786 25.4908C16.5513 25.5172 16.399 25.5303 16.2346 25.504C16.0442 25.4777 15.8538 25.425 15.6764 25.346C15.4989 25.2802 15.3215 25.1881 15.1562 25.0959C14.9918 25.0038 14.8395 24.8985 14.7131 24.8064C14.5859 24.7228 14.4803 24.6284 14.3955 24.5526C14.3869 24.5448 14.379 24.5372 14.3704 24.5299L13.8 26.4912C13.8563 26.575 13.9282 26.6535 14.0086 26.7301ZM15.8771 22.7648C15.8295 22.7177 15.7837 22.6699 15.7395 22.6212C15.5621 22.4238 15.3977 22.2132 15.2705 21.9763C15.1311 21.7392 15.0299 21.4891 14.9667 21.2259C14.8905 20.9627 14.8645 20.673 14.8775 20.3571C14.9026 19.8306 15.0048 19.3435 15.1692 18.9091C15.3466 18.4616 15.5881 18.0667 15.8919 17.7245C16.2095 17.3691 16.5894 17.0794 17.0204 16.8557C17.4773 16.6187 17.9845 16.4608 18.5548 16.3818C18.8214 16.3423 19.075 16.3291 19.3155 16.3291C19.557 16.3291 19.7855 16.3423 20.001 16.3686C20.2165 16.395 20.4069 16.4344 20.5843 16.4871C20.7487 16.5266 20.901 16.5924 21.0283 16.6582L21.0083 16.7198C20.9166 16.6799 20.8162 16.644 20.7106 16.6187C20.5332 16.5661 20.3428 16.5266 20.1273 16.5002C19.9118 16.474 19.6833 16.4608 19.4427 16.4608C19.2022 16.4608 18.9486 16.474 18.682 16.5134C18.1117 16.5924 17.6037 16.7503 17.1476 16.9873C16.7166 17.2111 16.3358 17.5006 16.0191 17.8561C15.7144 18.1983 15.4738 18.5932 15.2964 19.0408C15.1311 19.4752 15.0299 19.9622 15.0048 20.4887C14.9918 20.8047 15.0169 21.0943 15.093 21.3575C15.1562 21.6208 15.2583 21.8709 15.3977 22.1079C15.524 22.3448 15.6893 22.5554 15.8667 22.7528C15.8702 22.7568 15.8737 22.7609 15.8771 22.7648ZM17.5993 20.6611C17.6686 20.7394 17.7552 20.8247 17.8573 20.91C17.9845 21.0153 18.1368 21.1206 18.3013 21.2259C18.5427 21.3839 18.7833 21.555 19.0118 21.7656C19.0784 21.8269 19.1442 21.8904 19.21 21.9562C19.1044 21.8427 18.9944 21.7353 18.8845 21.634C18.6569 21.4233 18.4155 21.2522 18.1749 21.0943C18.0096 20.9889 17.8573 20.8837 17.7309 20.7784C17.6833 20.7391 17.64 20.6998 17.5993 20.6611Z" fill="#0F172A"/>
<path opacity="0.41" fill-rule="evenodd" clip-rule="evenodd" d="M26.2901 27.6366L25.8591 12.7619L25.7829 12.683L25.9863 27.426C25.9863 27.426 24.1983 30.2429 23.9318 30.1639C23.5389 30.0455 24.7055 11.5772 24.7055 11.5772L24.5783 11.4456C24.5281 11.4061 24.464 11.3798 24.4138 11.3666L23.4627 31.0985L23.4497 31.375L23.7794 30.9406L26.2901 27.6366Z" fill="url(#paint6_linear_253_189)"/>
<path fill-rule="evenodd" clip-rule="evenodd" d="M21.4332 12.2223C21.2818 12.8409 21.0914 13.4201 20.952 13.7755C20.8629 13.9862 20.9642 14.1836 21.1546 14.21C21.3579 14.2363 21.5856 14.0914 21.6617 13.8809C21.6747 13.8413 22.0165 12.9858 22.2329 11.9722V11.959L21.4332 12.2223Z" fill="url(#paint7_linear_253_189)"/>
<path fill-rule="evenodd" clip-rule="evenodd" d="M15.7144 14.065C15.537 14.4599 15.3596 14.8022 15.2324 15.0391C15.119 15.2366 15.1822 15.4471 15.3726 15.4998C15.5621 15.5656 15.8157 15.4471 15.9299 15.2497C15.9429 15.2234 16.3107 14.5784 16.6405 13.7622L15.7144 14.065Z" fill="url(#paint8_linear_253_189)"/>
<path opacity="0.32" fill-rule="evenodd" clip-rule="evenodd" d="M23.4497 31.3617L26.2901 27.6364L30.2218 29.8479L23.4497 31.3617Z" fill="url(#paint9_linear_253_189)"/>
<path opacity="0.19" fill-rule="evenodd" clip-rule="evenodd" d="M23.4497 31.3617L26.265 27.6364L30.2218 29.8479L23.4497 31.3617Z" fill="url(#paint10_linear_253_189)"/>
<path opacity="0.19" fill-rule="evenodd" clip-rule="evenodd" d="M23.4497 31.3617L26.265 27.6364L30.2218 29.8479L23.4497 31.3617Z" fill="url(#paint11_linear_253_189)"/>
<path opacity="0.6" fill-rule="evenodd" clip-rule="evenodd" d="M20.6855 20.9364C22.1568 23.003 23.1459 25.2408 23.6401 27.4128L24.4139 11.3403C24.2745 11.314 24.1343 11.3403 24.0962 11.3535L13.3431 14.8155C13.3431 14.8155 13.2418 14.8417 13.1146 14.8945C15.8416 15.8685 18.5678 17.9615 20.6855 20.9364Z" fill="url(#paint12_linear_253_189)"/>
<path fill-rule="evenodd" clip-rule="evenodd" d="M27.7483 12.9462C27.8123 12.9989 27.8123 13.0779 27.8123 13.0779L30.1706 29.8348L26.29 27.6234L25.859 12.7488L27.5968 12.8804C27.6089 12.8936 27.6851 12.8936 27.7483 12.9462Z" fill="url(#paint13_linear_253_189)"/>
<path fill-rule="evenodd" clip-rule="evenodd" d="M27.4697 12.9858C27.4697 12.9858 27.5459 12.9858 27.6091 13.0516C27.6723 13.1043 27.6852 13.1833 27.6852 13.1833L30.0063 29.756L30.1838 29.8614L27.8246 13.0912C27.8246 13.0912 27.8124 13.0122 27.7614 12.9596C27.6982 12.9069 27.6091 12.9069 27.6091 12.9069L25.8721 12.7753L27.4697 12.9858Z" fill="url(#paint14_linear_253_189)"/>
<path fill-rule="evenodd" clip-rule="evenodd" d="M10.9718 28.9395L23.4498 31.3615L24.059 17.6452L12.5235 17.9731L10.9718 28.9395Z" fill="url(#paint15_linear_253_189)"/>
<path opacity="0.3" fill-rule="evenodd" clip-rule="evenodd" d="M15.0679 15.0071C14.9545 15.327 15.0661 15.6632 15.3188 15.7581C15.5707 15.8529 15.8666 15.6705 15.9809 15.3506C16.0943 15.0308 15.9818 14.6945 15.7299 14.5997C15.4781 14.5048 15.1812 14.6872 15.0679 15.0071Z" fill="white"/>
<path opacity="0.89" fill-rule="evenodd" clip-rule="evenodd" d="M15.0542 14.8553C14.9408 15.1752 15.0533 15.5114 15.3051 15.6062C15.557 15.7011 15.8538 15.5187 15.9672 15.1988C16.0806 14.8789 15.969 14.5427 15.7162 14.4478C15.4644 14.3529 15.1684 14.5353 15.0542 14.8553Z" fill="#0F172A"/>
<path fill-rule="evenodd" clip-rule="evenodd" d="M25.8721 12.7619L24.5783 11.4324C24.5281 11.3928 24.464 11.3666 24.4138 11.3534L23.4497 31.3618L26.3031 27.6233L25.8721 12.7619Z" fill="url(#paint16_linear_253_189)"/>
<path fill-rule="evenodd" clip-rule="evenodd" d="M24.0962 11.3668L13.3431 14.8156C13.3431 14.8156 12.8871 14.9472 12.7728 15.092C12.7598 15.1052 12.7598 15.1184 12.7477 15.1315L23.5891 12.025C23.6782 11.9986 23.8937 11.9196 23.8686 12.5646L23.2092 31.3356L23.4377 31.3752L24.4009 11.3668C24.2745 11.3273 24.1343 11.3536 24.0962 11.3668Z" fill="url(#paint17_linear_253_189)"/>
<path fill-rule="evenodd" clip-rule="evenodd" d="M24.0962 11.3668L13.3431 14.8156C13.3431 14.8156 12.8871 14.9472 12.7728 15.092C12.7598 15.1052 12.7598 15.1184 12.7477 15.1315L15.2583 14.4075L23.8937 11.6301C23.9318 11.6169 24.0712 11.5905 24.2105 11.6169L23.2594 31.3356L23.4377 31.3752L24.4009 11.3668C24.2745 11.3273 24.1343 11.3536 24.0962 11.3668Z" fill="url(#paint18_linear_253_189)"/>
<path opacity="0.32" fill-rule="evenodd" clip-rule="evenodd" d="M26.8614 27.9524L26.2901 27.6234L23.4377 31.3617L23.5891 31.3222C23.5891 31.3222 26.1006 27.9656 26.3282 27.8603C26.4935 27.7945 26.8614 27.9524 26.8614 27.9524Z" fill="url(#paint19_linear_253_189)"/>
<path opacity="0.57" fill-rule="evenodd" clip-rule="evenodd" d="M23.4497 31.3617L26.3031 27.6234C26.2901 27.6365 24.49 29.6768 23.4497 31.3617Z" fill="url(#paint20_linear_253_189)"/>
<path opacity="0.46" fill-rule="evenodd" clip-rule="evenodd" d="M30.2217 29.8479L26.303 27.6364C26.29 27.6364 26.747 27.7154 30.2217 29.8479Z" fill="url(#paint21_linear_253_189)"/>
<path opacity="0.3" fill-rule="evenodd" clip-rule="evenodd" d="M20.8655 13.6946C20.7513 14.0145 20.8638 14.3507 21.1157 14.4457C21.3684 14.5406 21.6644 14.3582 21.7777 14.0383C21.892 13.7183 21.7795 13.3821 21.5276 13.2872C21.2758 13.1924 20.9789 13.3747 20.8655 13.6946Z" fill="white"/>
<path opacity="0.89" fill-rule="evenodd" clip-rule="evenodd" d="M20.8517 13.5433C20.7383 13.8633 20.8509 14.1995 21.1027 14.2944C21.3546 14.3893 21.6514 14.2069 21.7647 13.887C21.8781 13.5671 21.7665 13.2309 21.5146 13.136C21.2619 13.0411 20.9659 13.2235 20.8517 13.5433Z" fill="#0F172A"/>
<path fill-rule="evenodd" clip-rule="evenodd" d="M15.5119 15.5C15.4989 15.5 15.4738 15.5 15.4608 15.5C15.2583 15.4737 15.119 15.2762 15.1441 15.0525C15.1692 14.8418 15.8918 9.91868 18.8594 8.79984C19.6071 8.52338 20.2415 8.576 20.7236 8.98415C21.3069 9.47118 21.6236 10.4452 21.6747 11.8669C21.7128 12.8673 21.5986 13.736 21.5986 13.7756C21.5735 13.9862 21.3831 14.1442 21.1797 14.1047C20.9772 14.0783 20.8248 13.8809 20.8629 13.6702C20.9771 12.7752 21.1035 10.3136 20.2545 9.60278C19.9879 9.37903 19.6202 9.35267 19.126 9.53698C16.5773 10.4979 15.9048 15.1183 15.9048 15.1577C15.8537 15.3552 15.7023 15.5 15.5119 15.5Z" fill="#595961"/>
<path opacity="0.46" fill-rule="evenodd" clip-rule="evenodd" d="M20.5712 9.01034C20.1273 8.64182 19.544 8.58919 18.8464 8.8393C17.6417 9.29998 16.6274 10.511 15.9298 12.3407C15.4106 13.6965 15.2323 14.9207 15.2323 14.9734C15.2202 15.0392 15.2453 15.105 15.2834 15.1577C15.3215 15.2103 15.3725 15.2499 15.4357 15.2499C15.4478 15.2499 15.4608 15.2499 15.4738 15.2499C15.588 15.2499 15.6892 15.1577 15.7022 15.0392C15.7143 14.9866 16.3868 10.2872 19.0117 9.29998C19.544 9.10249 19.9749 9.12885 20.2795 9.39213C21.1796 10.1424 21.0533 12.6829 20.939 13.5912C20.9261 13.7229 21.0152 13.8545 21.1416 13.8677C21.2688 13.8808 21.3951 13.7887 21.4081 13.6571C21.4211 13.5122 21.8651 10.0898 20.5712 9.01034Z" fill="#B2B2C2"/>
<path opacity="0.81" fill-rule="evenodd" clip-rule="evenodd" d="M15.4609 15.1051C15.4479 15.1051 15.4479 15.1051 15.4358 15.1051C15.3596 15.0919 15.3086 15.0129 15.3215 14.9339C15.3345 14.8812 15.499 13.6834 16.0191 12.3276C16.7167 10.5242 17.7058 9.3263 18.8846 8.87871C19.557 8.62861 20.1023 8.68132 20.5203 9.02358C21.763 10.0634 21.332 13.4333 21.3069 13.5781C21.294 13.6571 21.2308 13.7097 21.1417 13.6966C21.0664 13.6834 21.0153 13.6176 21.0153 13.5255C21.0153 13.4859 21.4463 10.1819 20.3307 9.23415C20.001 8.98404 19.5441 8.95778 18.9867 9.16835C16.3108 10.1819 15.6132 14.9339 15.6132 14.9866C15.6002 15.0524 15.537 15.1051 15.4609 15.1051Z" fill="#B2B2C2"/>
<path opacity="0.42" fill-rule="evenodd" clip-rule="evenodd" d="M17.1346 11.3402C17.274 11.1428 17.4012 10.9453 17.5275 10.7347C17.4773 10.8005 17.1095 11.4851 16.3488 11.3797C16.3358 11.3797 16.7798 11.5245 17.1346 11.3402Z" fill="#595961"/>
<path opacity="0.42" fill-rule="evenodd" clip-rule="evenodd" d="M16.7037 12.1825C16.8179 11.9719 16.9321 11.7481 17.0204 11.5375C16.9823 11.6165 16.7287 12.3273 15.9299 12.3273C15.9299 12.3273 16.3739 12.4194 16.7037 12.1825Z" fill="#595961"/>
<path opacity="0.42" fill-rule="evenodd" clip-rule="evenodd" d="M16.3739 13.0516C16.4752 12.8278 16.5514 12.604 16.6275 12.3803C16.5894 12.4593 16.4501 13.1832 15.6132 13.2754C15.6132 13.2622 16.0693 13.3149 16.3739 13.0516Z" fill="#595961"/>
<path opacity="0.62" fill-rule="evenodd" clip-rule="evenodd" d="M21.4462 10.4846C21.383 10.2476 21.3198 10.0238 21.2307 9.7869C21.2558 9.86587 21.5094 10.6162 20.9901 11.1558C20.9901 11.1558 21.37 10.8926 21.4462 10.4846Z" fill="#595961"/>
<path opacity="0.62" fill-rule="evenodd" clip-rule="evenodd" d="M20.9521 9.29987C20.7747 9.12874 20.5964 8.97079 20.4189 8.82602C20.483 8.89182 21.0784 9.37885 20.914 10.116C20.901 10.116 21.0914 9.68157 20.9521 9.29987Z" fill="#595961"/>
<path opacity="0.62" fill-rule="evenodd" clip-rule="evenodd" d="M21.5734 11.6957C21.5604 11.4588 21.5224 11.2087 21.4843 10.9716C21.4843 11.0638 21.6115 11.8405 21.0023 12.2617C21.0023 12.2617 21.4211 12.0774 21.5734 11.6957Z" fill="#595961"/>
<path opacity="0.62" fill-rule="evenodd" clip-rule="evenodd" d="M21.6367 12.9331C21.6496 12.6962 21.6496 12.4461 21.6367 12.2092C21.6367 12.3013 21.6496 13.078 21.0023 13.4333C21.0023 13.4202 21.4463 13.2886 21.6367 12.9331Z" fill="#595961"/>
<path opacity="0.42" fill-rule="evenodd" clip-rule="evenodd" d="M16.0822 14.0124C16.1583 13.7754 16.2094 13.5385 16.2596 13.3147C16.2345 13.3936 16.1203 14.144 15.3466 14.3283C15.3595 14.3283 15.8156 14.3151 16.0822 14.0124Z" fill="#595961"/>
<path opacity="0.42" fill-rule="evenodd" clip-rule="evenodd" d="M17.6167 10.616C17.7941 10.4581 17.9594 10.2869 18.1117 10.1026C18.0477 10.1553 17.5405 10.695 16.8309 10.4975C16.843 10.4975 17.2359 10.7345 17.6167 10.616Z" fill="#595961"/>
<path opacity="0.42" fill-rule="evenodd" clip-rule="evenodd" d="M18.1869 10.0108C18.3903 9.87921 18.5807 9.74753 18.7702 9.60275C18.6949 9.64228 18.1116 10.0766 17.4391 9.7607C17.4391 9.7607 17.794 10.0634 18.1869 10.0108Z" fill="#595961"/>
<path opacity="0.62" fill-rule="evenodd" clip-rule="evenodd" d="M18.9606 9.57646C19.1891 9.51057 19.4046 9.4316 19.6201 9.35262C19.544 9.37897 18.8594 9.6159 18.3012 9.11569C18.3012 9.11569 18.5677 9.51057 18.9606 9.57646Z" fill="#595961"/>
<path opacity="0.62" fill-rule="evenodd" clip-rule="evenodd" d="M19.6072 9.33955C19.7855 9.3659 19.9629 9.37908 20.1403 9.39226C20.0771 9.37908 19.5319 9.33955 19.2904 8.81299C19.3034 8.81299 19.3666 9.16842 19.6072 9.33955Z" fill="#595961"/>
<path opacity="0.62" fill-rule="evenodd" clip-rule="evenodd" d="M20.2926 9.62894C20.4068 9.77372 20.5202 9.9185 20.6345 10.0502C20.5964 9.99747 20.2415 9.56315 20.4189 9.02341C20.4319 9.02341 20.2415 9.32622 20.2926 9.62894Z" fill="#595961"/>
<path fill-rule="evenodd" clip-rule="evenodd" d="M21.1675 13.5122C21.1796 13.3674 21.6115 10.0371 20.4068 9.0235C20.1783 8.8261 19.8996 8.73395 19.595 8.73395C19.3665 8.73395 19.113 8.78657 18.8464 8.8919C17.6798 9.32631 16.7035 10.4979 16.019 12.288C15.4989 13.6307 15.3344 14.8286 15.3214 14.8812C15.3214 14.9207 15.3466 14.9602 15.3846 14.9602H15.3976C15.4357 14.9602 15.4608 14.9339 15.4608 14.8944C15.4737 14.8417 16.1583 10.0371 18.8844 9.01032C19.4677 8.78657 19.9628 8.8261 20.3176 9.12883C21.4712 10.0897 21.0403 13.4464 21.0282 13.4859C21.0282 13.5254 21.0533 13.5649 21.0914 13.5649C21.0914 13.5649 21.0913 13.5649 21.1035 13.5649C21.1415 13.5781 21.1675 13.5517 21.1675 13.5122Z" fill="url(#paint22_linear_253_189)"/>
<path fill-rule="evenodd" clip-rule="evenodd" d="M21.6747 11.8668C21.6236 10.4451 21.3069 9.48415 20.7236 8.98395C20.4068 8.72075 20.0261 8.60224 19.5951 8.6286C19.9248 8.65486 20.2286 8.77337 20.483 8.98395C21.0663 9.47106 21.3831 10.4451 21.4333 11.8668C21.4713 12.8672 21.358 13.7359 21.358 13.7755C21.332 13.9334 21.2308 14.0519 21.1035 14.0914C21.1295 14.1045 21.1416 14.1045 21.1676 14.1045C21.3701 14.1309 21.5605 13.986 21.5856 13.7755C21.5986 13.7359 21.7128 12.8804 21.6747 11.8668Z" fill="url(#paint23_linear_253_189)"/>
<path fill-rule="evenodd" clip-rule="evenodd" d="M18.8725 9.53687C16.3237 10.4978 15.6513 15.1181 15.6513 15.1708C15.6262 15.3287 15.5241 15.4472 15.3977 15.4867C15.4228 15.4998 15.4358 15.4998 15.4609 15.4998C15.4739 15.4998 15.499 15.4998 15.512 15.4998C15.7024 15.4998 15.8538 15.3551 15.8798 15.1708C15.8919 15.1181 16.5514 10.5109 19.1001 9.54996C19.2784 9.48416 19.4298 9.44472 19.57 9.43154C19.3796 9.40518 19.1382 9.44471 18.8725 9.53687Z" fill="url(#paint24_linear_253_189)"/>
<defs>
<linearGradient id="paint0_linear_253_189" x1="18.5063" y1="9.44811" x2="18.1086" y2="14.8628" gradientUnits="userSpaceOnUse">
<stop stop-color="white" stop-opacity="0.65"/>
<stop offset="1" stop-color="white" stop-opacity="0.01"/>
</linearGradient>
<linearGradient id="paint1_linear_253_189" x1="21.4125" y1="12.5475" x2="24.2125" y2="14.9999" gradientUnits="userSpaceOnUse">
<stop stop-opacity="0.01"/>
<stop offset="1" stop-opacity="0.4"/>
</linearGradient>
<linearGradient id="paint2_linear_253_189" x1="20.29" y1="15.3845" x2="23.2537" y2="12.624" gradientUnits="userSpaceOnUse">
<stop stop-opacity="0.01"/>
<stop offset="1" stop-opacity="0.4"/>
</linearGradient>
<linearGradient id="paint3_linear_253_189" x1="16.5176" y1="7.32859" x2="5.00621" y2="20.5922" gradientUnits="userSpaceOnUse">
<stop stop-color="#B8D26E"/>
<stop offset="1" stop-color="#7FB525"/>
</linearGradient>
<linearGradient id="paint4_linear_253_189" x1="32.2643" y1="10.6492" x2="25.9466" y2="10.7666" gradientUnits="userSpaceOnUse">
<stop stop-color="#B4E034"/>
<stop offset="1" stop-color="#60A927"/>
</linearGradient>
<linearGradient id="paint5_linear_253_189" x1="13.4729" y1="19.4934" x2="8.29325" y2="32.1068" gradientUnits="userSpaceOnUse">
<stop stop-color="white"/>
<stop offset="1" stop-color="#CECEEB"/>
</linearGradient>
<linearGradient id="paint6_linear_253_189" x1="20.8993" y1="50.5565" x2="29.1027" y2="50.5399" gradientUnits="userSpaceOnUse">
<stop stop-color="#1D1D1B" stop-opacity="0.5"/>
<stop offset="0.038033" stop-color="#1D1D1B" stop-opacity="0.4837"/>
<stop offset="0.4243" stop-color="#1D1D1B" stop-opacity="0.3185"/>
<stop offset="1" stop-color="#1D1D1B" stop-opacity="0.01"/>
</linearGradient>
<linearGradient id="paint7_linear_253_189" x1="21.8521" y1="11.0756" x2="20.4911" y2="11.808" gradientUnits="userSpaceOnUse">
<stop stop-opacity="0.01"/>
<stop offset="1" stop-opacity="0.4"/>
</linearGradient>
<linearGradient id="paint8_linear_253_189" x1="16.1463" y1="13.248" x2="15.1896" y2="14.0701" gradientUnits="userSpaceOnUse">
<stop stop-opacity="0.01"/>
<stop offset="1" stop-opacity="0.4"/>
</linearGradient>
<linearGradient id="paint9_linear_253_189" x1="25.4783" y1="29.8577" x2="25.5752" y2="31.1345" gradientUnits="userSpaceOnUse">
<stop stop-opacity="0.01"/>
<stop offset="1" stop-opacity="0.4"/>
</linearGradient>
<linearGradient id="paint10_linear_253_189" x1="23.2169" y1="27.9885" x2="23.4415" y2="31.3081" gradientUnits="userSpaceOnUse">
<stop stop-color="white" stop-opacity="0.5"/>
<stop offset="0.0896271" stop-color="white" stop-opacity="0.4552"/>
<stop offset="1" stop-color="white" stop-opacity="0.01"/>
</linearGradient>
<linearGradient id="paint11_linear_253_189" x1="22.785" y1="28.5049" x2="23.1845" y2="32.0509" gradientUnits="userSpaceOnUse">
<stop stop-opacity="0.01"/>
<stop offset="1" stop-opacity="0.4"/>
</linearGradient>
<linearGradient id="paint12_linear_253_189" x1="21.2178" y1="8.10339" x2="10.9734" y2="14.0284" gradientUnits="userSpaceOnUse">
<stop stop-color="white" stop-opacity="0.5"/>
<stop offset="1" stop-color="white" stop-opacity="0.01"/>
</linearGradient>
<linearGradient id="paint13_linear_253_189" x1="23.1943" y1="39.0693" x2="32.2364" y2="39.0875" gradientUnits="userSpaceOnUse">
<stop stop-color="#1D1D1B" stop-opacity="0.5"/>
<stop offset="0.0896271" stop-color="#1D1D1B" stop-opacity="0.4552"/>
<stop offset="1" stop-color="#1D1D1B" stop-opacity="0.01"/>
</linearGradient>
<linearGradient id="paint14_linear_253_189" x1="29.6697" y1="12.2764" x2="28.3852" y2="12.5912" gradientUnits="userSpaceOnUse">
<stop stop-color="white" stop-opacity="0.4"/>
<stop offset="1" stop-color="white" stop-opacity="0.01"/>
</linearGradient>
<linearGradient id="paint15_linear_253_189" x1="18.1455" y1="31.508" x2="18.8134" y2="28.2879" gradientUnits="userSpaceOnUse">
<stop stop-color="#1D1D1B" stop-opacity="0.5"/>
<stop offset="0.0896271" stop-color="#1D1D1B" stop-opacity="0.4552"/>
<stop offset="1" stop-color="#1D1D1B" stop-opacity="0.01"/>
</linearGradient>
<linearGradient id="paint16_linear_253_189" x1="22.007" y1="50.1466" x2="30.24" y2="50.1537" gradientUnits="userSpaceOnUse">
<stop stop-color="#1D1D1B" stop-opacity="0.5"/>
<stop offset="1" stop-color="#1D1D1B" stop-opacity="0.01"/>
</linearGradient>
<linearGradient id="paint17_linear_253_189" x1="14.4838" y1="10.2068" x2="10.4908" y2="25.5476" gradientUnits="userSpaceOnUse">
<stop stop-color="white" stop-opacity="0.5"/>
<stop offset="1" stop-color="white" stop-opacity="0.01"/>
</linearGradient>
<linearGradient id="paint18_linear_253_189" x1="14.4838" y1="10.2068" x2="10.4908" y2="25.5476" gradientUnits="userSpaceOnUse">
<stop stop-color="white" stop-opacity="0.5"/>
<stop offset="1" stop-color="white" stop-opacity="0.01"/>
</linearGradient>
<linearGradient id="paint19_linear_253_189" x1="24.1742" y1="26.2879" x2="21.0181" y2="30.6318" gradientUnits="userSpaceOnUse">
<stop stop-color="white" stop-opacity="0.5"/>
<stop offset="0.0896271" stop-color="white" stop-opacity="0.4552"/>
<stop offset="1" stop-color="white" stop-opacity="0.01"/>
</linearGradient>
<linearGradient id="paint20_linear_253_189" x1="25.1261" y1="27.2866" x2="24.8136" y2="27.9871" gradientUnits="userSpaceOnUse">
<stop stop-opacity="0.01"/>
<stop offset="1" stop-opacity="0.4"/>
</linearGradient>
<linearGradient id="paint21_linear_253_189" x1="28.2251" y1="28.2127" x2="28.2097" y2="28.401" gradientUnits="userSpaceOnUse">
<stop stop-opacity="0.01"/>
<stop offset="1" stop-opacity="0.4"/>
</linearGradient>
<linearGradient id="paint22_linear_253_189" x1="16.8602" y1="8.29084" x2="15.4958" y2="13.6808" gradientUnits="userSpaceOnUse">
<stop stop-color="white" stop-opacity="0.65"/>
<stop offset="1" stop-color="white" stop-opacity="0.01"/>
</linearGradient>
<linearGradient id="paint23_linear_253_189" x1="19.9136" y1="11.4001" x2="22.287" y2="13.8131" gradientUnits="userSpaceOnUse">
<stop stop-opacity="0.01"/>
<stop offset="1" stop-opacity="0.4"/>
</linearGradient>
<linearGradient id="paint24_linear_253_189" x1="18.3965" y1="14.9535" x2="21.6757" y2="11.5857" gradientUnits="userSpaceOnUse">
<stop stop-opacity="0.01"/>
<stop offset="1" stop-opacity="0.4"/>
</linearGradient>
</defs>
</svg>
