<svg width="25" height="20" viewBox="0 0 25 20" fill="none" xmlns="http://www.w3.org/2000/svg">
<path fill-rule="evenodd" clip-rule="evenodd" d="M19.4229 5.50003H19.5104C20.1988 5.50015 20.8804 5.63608 21.5161 5.90004C22.1518 6.164 22.7292 6.5508 23.2152 7.03829C24.1981 8.02349 24.7501 9.35835 24.7501 10.75C24.7501 12.1417 24.1981 13.4766 23.2152 14.4618C22.7292 14.9493 22.1518 15.3361 21.5161 15.6C20.8804 15.864 20.1988 15.9999 19.5104 16H16.0192V14.25H19.5104C20.4116 14.2097 21.2625 13.8234 21.886 13.1714C22.5094 12.5194 22.8574 11.6521 22.8574 10.75C22.8574 9.84795 22.5094 8.98064 21.886 8.32867C21.2625 7.67671 20.4116 7.29035 19.5104 7.25003H17.9109L17.6957 5.75029C17.5644 4.81067 17.13 3.93958 16.4585 3.26935C15.787 2.59911 14.9151 2.16634 13.9752 2.03678C13.0348 1.90832 12.0782 2.09194 11.2522 2.55948C10.4262 3.02701 9.77636 3.75264 9.40244 4.62503L8.81969 5.95853L7.40394 5.62778C7.08033 5.54751 6.74858 5.50465 6.41519 5.50003C5.25669 5.50003 4.14544 5.96028 3.32819 6.78103C2.71914 7.39344 2.30473 8.17224 2.13706 9.01952C1.9694 9.86679 2.05596 10.7447 2.38587 11.5429C2.71578 12.3412 3.27431 13.024 3.99124 13.5057C4.70817 13.9874 5.55149 14.2463 6.41519 14.25H10.7797V16H6.41519C5.54839 16.0078 4.68989 15.8308 3.89687 15.4808C3.10386 15.1307 2.39454 14.6157 1.81619 13.97C0.941729 12.9962 0.402004 11.768 0.276043 10.4652C0.150081 9.16248 0.444501 7.85361 1.11619 6.73028C1.56107 5.98605 2.15902 5.34485 2.87042 4.84916C3.58182 4.35347 4.39044 4.01461 5.24269 3.85503C6.09319 3.69753 6.96994 3.72028 7.81169 3.92678C8.34209 2.71231 9.25355 1.70358 10.4082 1.05316C11.5629 0.402742 12.8979 0.146006 14.2114 0.321785C15.5255 0.499604 16.7456 1.10159 17.6863 2.03625C18.6269 2.97091 19.2367 4.18712 19.4229 5.50003ZM16.5127 12.2428L14.2132 9.94503V19.458H12.4737V10.008L10.2372 12.2445L8.99994 11.0055L12.7554 7.25003H13.9944L17.7499 11.0055L16.5127 12.2428V12.2428Z" fill="#64748B"/>
</svg>
